<!--?xml version="1.0" standalone="no"?-->
              <svg id="sw-js-blob-svg" viewBox="0 0 100 100" xmlns="http://www.w3.org/2000/svg" version="1.1">
                    <defs> 
                        <linearGradient id="sw-gradient" x1="0" x2="1" y1="1" y2="0">
                            <stop id="stop1" stop-color="rgba(15, 98, 254, 1)" offset="0%"></stop>
                            <stop id="stop2" stop-color="rgba(116.703, 164.731, 255, 1)" offset="100%"></stop>
                        </linearGradient>
                    </defs>
                <path fill="url(#sw-gradient)" d="M16.3,-19.4C22.1,-14.5,28.5,-10.3,32.2,-3.6C35.9,3.2,36.8,12.5,33.6,20.7C30.4,29,23.1,36.1,15,37.4C7,38.6,-1.8,33.9,-10.6,30.2C-19.5,26.6,-28.3,24,-30.8,18.4C-33.4,12.8,-29.7,4.1,-27.8,-4.6C-25.9,-13.3,-25.9,-22.1,-21.6,-27.3C-17.2,-32.4,-8.6,-34,-1.7,-32C5.2,-30,10.4,-24.3,16.3,-19.4Z" width="100%" height="100%" transform="translate(50 50)" stroke-width="0" style="transition: all 0.3s ease 0s;"></path>
              </svg>