<!--?xml version="1.0" standalone="no"?-->
              <svg id="sw-js-blob-svg" viewBox="0 0 100 100" xmlns="http://www.w3.org/2000/svg" version="1.1">
                    <defs> 
                        <linearGradient id="sw-gradient" x1="0" x2="1" y1="1" y2="0">
                            <stop id="stop1" stop-color="rgba(29, 78, 216, 1)" offset="0%"></stop>
                            <stop id="stop2" stop-color="rgba(115.561, 186.581, 246.426, 1)" offset="100%"></stop>
                        </linearGradient>
                    </defs>
                <path fill="url(#sw-gradient)" d="M24.6,-29.8C29.9,-24.9,30.9,-15.3,32.7,-5.7C34.5,3.9,37.1,13.4,34.2,21C31.4,28.6,22.9,34.2,14.4,35.5C5.9,36.8,-2.6,33.8,-8.8,29.4C-15,24.9,-18.9,19,-24.2,12.6C-29.4,6.2,-36.2,-0.7,-36.5,-7.8C-36.9,-15,-31,-22.4,-23.8,-27C-16.7,-31.7,-8.3,-33.5,0.7,-34.3C9.7,-35.1,19.3,-34.8,24.6,-29.8Z" width="100%" height="100%" transform="translate(50 50)" stroke-width="0" style="transition: all 0.3s ease 0s;"></path>
              </svg>